<svg width="365" height="24" viewBox="0 0 365 24" fill="none" xmlns="http://www.w3.org/2000/svg">
<path fill-rule="evenodd" clip-rule="evenodd" d="M12 3.75C7.44365 3.75 3.75 7.44365 3.75 12C3.75 16.5563 7.44365 20.25 12 20.25C16.5563 20.25 20.25 16.5563 20.25 12C20.25 7.44365 16.5563 3.75 12 3.75ZM2.25 12C2.25 6.61522 6.61522 2.25 12 2.25C17.3848 2.25 21.75 6.61522 21.75 12C21.75 17.3848 17.3848 21.75 12 21.75C6.61522 21.75 2.25 17.3848 2.25 12Z" fill="#858584"/>
<path fill-rule="evenodd" clip-rule="evenodd" d="M2.76562 9C2.76562 8.58579 3.10141 8.25 3.51562 8.25H20.4844C20.8986 8.25 21.2344 8.58579 21.2344 9C21.2344 9.41421 20.8986 9.75 20.4844 9.75H3.51562C3.10141 9.75 2.76562 9.41421 2.76562 9Z" fill="#858584"/>
<path fill-rule="evenodd" clip-rule="evenodd" d="M2.76562 15C2.76562 14.5858 3.10141 14.25 3.51562 14.25H20.4844C20.8986 14.25 21.2344 14.5858 21.2344 15C21.2344 15.4142 20.8986 15.75 20.4844 15.75H3.51562C3.10141 15.75 2.76562 15.4142 2.76562 15Z" fill="#858584"/>
<path fill-rule="evenodd" clip-rule="evenodd" d="M10.0378 6.10405C9.4079 7.57484 9 9.659 9 12.0004C9 14.3418 9.4079 16.4259 10.0378 17.8967C10.3533 18.6335 10.7097 19.1817 11.0673 19.5349C11.4217 19.8849 11.736 20.0066 12 20.0066C12.264 20.0066 12.5783 19.8849 12.9327 19.5349C13.2903 19.1817 13.6467 18.6335 13.9622 17.8967C14.5921 16.4259 15 14.3418 15 12.0004C15 9.659 14.5921 7.57484 13.9622 6.10405C13.6467 5.36731 13.2903 4.81904 12.9327 4.46587C12.5783 4.11587 12.264 3.99414 12 3.99414C11.736 3.99414 11.4217 4.11587 11.0673 4.46587C10.7097 4.81904 10.3533 5.36731 10.0378 6.10405ZM10.0133 3.39863C10.5562 2.86245 11.2284 2.49414 12 2.49414C12.7716 2.49414 13.4438 2.86245 13.9867 3.39863C14.5264 3.93164 14.978 4.66569 15.3411 5.51353C16.0684 7.21187 16.5 9.50584 16.5 12.0004C16.5 14.4949 16.0684 16.7889 15.3411 18.4873C14.978 19.3351 14.5264 20.0691 13.9867 20.6022C13.4438 21.1383 12.7716 21.5066 12 21.5066C11.2284 21.5066 10.5562 21.1383 10.0133 20.6022C9.47362 20.0691 9.02201 19.3351 8.65891 18.4873C7.93157 16.7889 7.5 14.4949 7.5 12.0004C7.5 9.50584 7.93157 7.21187 8.65891 5.51353C9.02201 4.66569 9.47362 3.93164 10.0133 3.39863Z" fill="#858584"/>
<path d="M43.92 5.44H42.544L39.856 12.752L39.184 14.832L38.512 12.736L35.824 5.44H34.448L38.464 16H39.92L43.92 5.44ZM46.503 6.464C47.079 6.464 47.463 6.08 47.463 5.504C47.463 4.928 47.079 4.544 46.503 4.544C45.927 4.544 45.543 4.928 45.543 5.504C45.543 6.08 45.927 6.464 46.503 6.464ZM47.143 8H45.863V16H47.143V8ZM56.977 11.584C56.977 9.52 55.713 7.84 53.393 7.84C50.977 7.84 49.617 9.408 49.617 12C49.617 14.592 51.073 16.16 53.489 16.16C55.217 16.16 56.209 15.504 56.817 14.416L55.745 13.856C55.457 14.624 54.657 15.04 53.489 15.04C52.017 15.04 51.041 14.096 50.881 12.48H56.913C56.945 12.256 56.977 11.952 56.977 11.584ZM53.393 8.96C54.753 8.96 55.569 9.872 55.745 11.344H50.897C51.089 9.84 51.969 8.96 53.393 8.96ZM69.4144 8L67.3984 14.512L65.2224 8H63.9424L61.7664 14.512L59.7504 8H58.3264L61.1104 16H62.3904L64.5184 9.632L66.7744 16H68.0544L70.8384 8H69.4144ZM82.5153 5.28C79.5073 5.28 77.6193 7.376 77.6193 10.72C77.6193 14.064 79.5073 16.16 82.5153 16.16C85.5233 16.16 87.4113 14.064 87.4113 10.72C87.4113 7.376 85.5233 5.28 82.5153 5.28ZM82.5153 6.48C84.7073 6.48 86.0673 8.064 86.0673 10.72C86.0673 13.376 84.7073 14.96 82.5153 14.96C80.3233 14.96 78.9633 13.376 78.9633 10.72C78.9633 8.064 80.3233 6.48 82.5153 6.48ZM93.6859 7.84C92.4379 7.84 91.5739 8.336 91.1259 9.312L90.9499 8H89.9099V16H91.1899V11.68C91.1899 9.888 92.3419 9.04 93.3019 9.04C93.7179 9.04 94.0699 9.12 94.3099 9.248L94.5659 8C94.3259 7.872 93.9579 7.84 93.6859 7.84ZM97.0811 6.464C97.6571 6.464 98.0411 6.08 98.0411 5.504C98.0411 4.928 97.6571 4.544 97.0811 4.544C96.5051 4.544 96.1211 4.928 96.1211 5.504C96.1211 6.08 96.5051 6.464 97.0811 6.464ZM97.7211 8H96.4411V16H97.7211V8ZM105.155 14.976H102.499C101.875 14.976 101.443 14.672 101.443 14.112C101.443 13.568 101.699 13.248 102.339 13.104C102.691 13.2 103.107 13.248 103.571 13.248C105.491 13.248 106.851 12.128 106.851 10.544C106.851 9.712 106.483 9.008 105.843 8.528C106.067 7.952 106.675 7.648 107.747 7.648L107.459 6.528C106.259 6.528 105.507 7.056 105.203 8.16C104.723 7.952 104.179 7.84 103.571 7.84C101.651 7.84 100.291 8.96 100.291 10.544C100.291 11.472 100.691 12.256 101.459 12.736C100.755 12.976 100.259 13.472 100.259 14.304C100.259 15.008 100.739 15.488 101.347 15.776C100.467 16.016 99.9391 16.592 99.9391 17.328C99.9391 18.528 101.091 19.44 103.619 19.44C105.779 19.44 107.571 18.464 107.571 16.88C107.571 15.728 106.675 14.976 105.155 14.976ZM103.571 8.88C104.675 8.88 105.523 9.552 105.523 10.544C105.523 11.536 104.675 12.208 103.571 12.208C102.467 12.208 101.619 11.536 101.619 10.544C101.619 9.552 102.467 8.88 103.571 8.88ZM103.763 18.368C102.003 18.368 101.123 17.856 101.123 17.072C101.123 16.464 101.651 16.08 102.659 16.08H104.803C106.003 16.08 106.387 16.448 106.387 17.024C106.387 17.728 105.459 18.368 103.763 18.368ZM110.112 6.464C110.688 6.464 111.072 6.08 111.072 5.504C111.072 4.928 110.688 4.544 110.112 4.544C109.536 4.544 109.152 4.928 109.152 5.504C109.152 6.08 109.536 6.464 110.112 6.464ZM110.752 8H109.472V16H110.752V8ZM117.61 7.84C116.506 7.84 115.482 8.24 114.922 9.248L114.842 8H113.722V16H115.002V11.744C115.002 9.696 116.314 8.96 117.482 8.96C118.586 8.96 119.45 9.552 119.45 11.328V16H120.73V10.88C120.73 8.816 119.322 7.84 117.61 7.84ZM130.189 15.072C129.741 15.072 129.581 14.88 129.581 14.496V10.56C129.581 8.704 128.253 7.84 126.429 7.84C124.877 7.84 123.613 8.608 123.197 9.792L124.141 10.48C124.573 9.472 125.373 8.96 126.429 8.96C127.629 8.96 128.301 9.664 128.301 10.72V11.168L126.173 11.52C124.109 11.872 123.053 12.816 123.053 14.016C123.053 15.456 124.269 16.16 125.773 16.16C126.797 16.16 127.837 15.728 128.349 14.976C128.493 15.872 129.005 16.16 129.789 16.16C130.189 16.16 130.525 16.08 130.749 16L130.829 14.992C130.637 15.04 130.397 15.072 130.189 15.072ZM125.837 15.04C124.925 15.04 124.381 14.688 124.381 14.016C124.381 13.264 125.101 12.8 126.509 12.544L128.301 12.208V13.312C128.301 14.368 127.117 15.04 125.837 15.04ZM133.907 4.32H132.627V14.016C132.627 15.472 133.251 16.16 134.547 16.16C134.963 16.16 135.395 16.08 135.731 15.936L135.939 14.704C135.475 14.88 135.203 14.928 134.771 14.928C134.115 14.928 133.907 14.672 133.907 13.856V4.32Z" fill="white"/>
</svg>
