<svg width="365" height="24" viewBox="0 0 365 24" fill="none" xmlns="http://www.w3.org/2000/svg">
<path fill-rule="evenodd" clip-rule="evenodd" d="M12 3.75C7.44365 3.75 3.75 7.44365 3.75 12C3.75 16.5563 7.44365 20.25 12 20.25C16.5563 20.25 20.25 16.5563 20.25 12C20.25 7.44365 16.5563 3.75 12 3.75ZM2.25 12C2.25 6.61522 6.61522 2.25 12 2.25C17.3848 2.25 21.75 6.61522 21.75 12C21.75 17.3848 17.3848 21.75 12 21.75C6.61522 21.75 2.25 17.3848 2.25 12Z" fill="#858584"/>
<path fill-rule="evenodd" clip-rule="evenodd" d="M2.76562 9C2.76562 8.58579 3.10141 8.25 3.51562 8.25H20.4844C20.8986 8.25 21.2344 8.58579 21.2344 9C21.2344 9.41421 20.8986 9.75 20.4844 9.75H3.51562C3.10141 9.75 2.76562 9.41421 2.76562 9Z" fill="#858584"/>
<path fill-rule="evenodd" clip-rule="evenodd" d="M2.76562 15C2.76562 14.5858 3.10141 14.25 3.51562 14.25H20.4844C20.8986 14.25 21.2344 14.5858 21.2344 15C21.2344 15.4142 20.8986 15.75 20.4844 15.75H3.51562C3.10141 15.75 2.76562 15.4142 2.76562 15Z" fill="#858584"/>
<path fill-rule="evenodd" clip-rule="evenodd" d="M10.0378 6.10405C9.4079 7.57484 9 9.659 9 12.0004C9 14.3418 9.4079 16.4259 10.0378 17.8967C10.3533 18.6335 10.7097 19.1817 11.0673 19.5349C11.4217 19.8849 11.736 20.0066 12 20.0066C12.264 20.0066 12.5783 19.8849 12.9327 19.5349C13.2903 19.1817 13.6467 18.6335 13.9622 17.8967C14.5921 16.4259 15 14.3418 15 12.0004C15 9.659 14.5921 7.57484 13.9622 6.10405C13.6467 5.36731 13.2903 4.81904 12.9327 4.46587C12.5783 4.11587 12.264 3.99414 12 3.99414C11.736 3.99414 11.4217 4.11587 11.0673 4.46587C10.7097 4.81904 10.3533 5.36731 10.0378 6.10405ZM10.0133 3.39863C10.5562 2.86245 11.2284 2.49414 12 2.49414C12.7716 2.49414 13.4438 2.86245 13.9867 3.39863C14.5264 3.93164 14.978 4.66569 15.3411 5.51353C16.0684 7.21187 16.5 9.50584 16.5 12.0004C16.5 14.4949 16.0684 16.7889 15.3411 18.4873C14.978 19.3351 14.5264 20.0691 13.9867 20.6022C13.4438 21.1383 12.7716 21.5066 12 21.5066C11.2284 21.5066 10.5562 21.1383 10.0133 20.6022C9.47362 20.0691 9.02201 19.3351 8.65891 18.4873C7.93157 16.7889 7.5 14.4949 7.5 12.0004C7.5 9.50584 7.93157 7.21187 8.65891 5.51353C9.02201 4.66569 9.47362 3.93164 10.0133 3.39863Z" fill="#858584"/>
<path d="M43.92 5.44H42.544L39.856 12.752L39.184 14.832L38.512 12.736L35.824 5.44H34.448L38.464 16H39.92L43.92 5.44ZM46.503 6.464C47.079 6.464 47.463 6.08 47.463 5.504C47.463 4.928 47.079 4.544 46.503 4.544C45.927 4.544 45.543 4.928 45.543 5.504C45.543 6.08 45.927 6.464 46.503 6.464ZM47.143 8H45.863V16H47.143V8ZM56.977 11.584C56.977 9.52 55.713 7.84 53.393 7.84C50.977 7.84 49.617 9.408 49.617 12C49.617 14.592 51.073 16.16 53.489 16.16C55.217 16.16 56.209 15.504 56.817 14.416L55.745 13.856C55.457 14.624 54.657 15.04 53.489 15.04C52.017 15.04 51.041 14.096 50.881 12.48H56.913C56.945 12.256 56.977 11.952 56.977 11.584ZM53.393 8.96C54.753 8.96 55.569 9.872 55.745 11.344H50.897C51.089 9.84 51.969 8.96 53.393 8.96ZM69.4144 8L67.3984 14.512L65.2224 8H63.9424L61.7664 14.512L59.7504 8H58.3264L61.1104 16H62.3904L64.5184 9.632L66.7744 16H68.0544L70.8384 8H69.4144ZM81.3953 7.84C78.9793 7.84 77.5233 9.408 77.5233 12C77.5233 14.592 78.9793 16.16 81.3953 16.16C83.8113 16.16 85.2673 14.592 85.2673 12C85.2673 9.408 83.8113 7.84 81.3953 7.84ZM81.3953 8.944C83.0113 8.944 83.9873 10.096 83.9873 12C83.9873 13.904 83.0113 15.056 81.3953 15.056C79.7793 15.056 78.8033 13.904 78.8033 12C78.8033 10.096 79.7793 8.944 81.3953 8.944ZM91.6416 7.84C90.5376 7.84 89.5136 8.24 88.9536 9.248L88.8736 8H87.7536V16H89.0336V11.744C89.0336 9.696 90.3456 8.96 91.5136 8.96C92.6176 8.96 93.4816 9.552 93.4816 11.328V16H94.7616V10.88C94.7616 8.816 93.3536 7.84 91.6416 7.84ZM104.633 14.8V11.248H109.401V10.048H104.633V6.64H110.761V5.44H103.353V16H111.001V14.8H104.633ZM117.452 14.368C117.084 14.736 116.668 14.96 116.092 14.96C115.388 14.96 114.892 14.576 114.892 13.792V9.104H117.852V8H114.892V5.728L113.612 6.08V8H112.012V9.104H113.612V14.016C113.628 15.568 114.652 16.16 115.836 16.16C116.716 16.16 117.404 15.888 117.9 15.44L117.452 14.368ZM123.595 7.84C122.507 7.84 121.547 8.24 120.987 9.2V4.32H119.707V16H120.987V11.76C120.987 9.712 122.299 8.96 123.467 8.96C124.571 8.96 125.435 9.552 125.435 11.328V16H126.715V10.88C126.715 8.816 125.307 7.84 123.595 7.84ZM136.477 11.584C136.477 9.52 135.213 7.84 132.893 7.84C130.477 7.84 129.117 9.408 129.117 12C129.117 14.592 130.573 16.16 132.989 16.16C134.717 16.16 135.709 15.504 136.317 14.416L135.245 13.856C134.957 14.624 134.157 15.04 132.989 15.04C131.517 15.04 130.541 14.096 130.381 12.48H136.413C136.445 12.256 136.477 11.952 136.477 11.584ZM132.893 8.96C134.253 8.96 135.069 9.872 135.245 11.344H130.397C130.589 9.84 131.469 8.96 132.893 8.96ZM142.686 7.84C141.438 7.84 140.574 8.336 140.126 9.312L139.95 8H138.91V16H140.19V11.68C140.19 9.888 141.342 9.04 142.302 9.04C142.718 9.04 143.07 9.12 143.31 9.248L143.566 8C143.326 7.872 142.958 7.84 142.686 7.84ZM147.817 16.16C149.865 16.16 151.161 15.184 151.161 13.792C151.161 12.48 150.361 11.808 148.121 11.44C146.489 11.168 145.961 10.816 145.961 10.128C145.961 9.536 146.761 8.96 147.833 8.96C148.841 8.96 149.561 9.344 149.913 10.4L151.001 9.76C150.553 8.448 149.545 7.84 147.833 7.84C145.881 7.84 144.681 8.944 144.681 10.24C144.681 11.584 145.513 12.208 147.785 12.624C149.385 12.912 149.881 13.264 149.881 13.856C149.881 14.512 149.257 15.04 147.945 15.04C146.793 15.04 145.801 14.608 145.417 13.632L144.377 14.352C144.985 15.584 146.345 16.16 147.817 16.16ZM156.911 7.84C154.495 7.84 153.039 9.408 153.039 12C153.039 14.592 154.495 16.16 156.911 16.16C158.607 16.16 159.759 15.28 160.303 13.808L159.119 13.392C158.879 14.448 158.127 15.04 156.879 15.04C155.279 15.04 154.319 13.904 154.319 12C154.319 10.096 155.279 8.96 156.879 8.96C157.983 8.96 158.671 9.52 159.007 10.544L160.223 9.968C159.631 8.656 158.559 7.84 156.911 7.84ZM169.126 15.072C168.678 15.072 168.518 14.88 168.518 14.496V10.56C168.518 8.704 167.19 7.84 165.366 7.84C163.814 7.84 162.55 8.608 162.134 9.792L163.078 10.48C163.51 9.472 164.31 8.96 165.366 8.96C166.566 8.96 167.238 9.664 167.238 10.72V11.168L165.11 11.52C163.046 11.872 161.99 12.816 161.99 14.016C161.99 15.456 163.206 16.16 164.71 16.16C165.734 16.16 166.774 15.728 167.286 14.976C167.43 15.872 167.942 16.16 168.726 16.16C169.126 16.16 169.462 16.08 169.686 16L169.766 14.992C169.574 15.04 169.334 15.072 169.126 15.072ZM164.774 15.04C163.862 15.04 163.318 14.688 163.318 14.016C163.318 13.264 164.038 12.8 165.446 12.544L167.238 12.208V13.312C167.238 14.368 166.054 15.04 164.774 15.04ZM175.517 7.84C174.413 7.84 173.389 8.24 172.829 9.248L172.749 8H171.629V16H172.909V11.744C172.909 9.696 174.221 8.96 175.389 8.96C176.493 8.96 177.357 9.552 177.357 11.328V16H178.637V10.88C178.637 8.816 177.229 7.84 175.517 7.84Z" fill="white"/>
</svg>
